<?xml version="1.0" standalone="no"?>
<!DOCTYPE svg PUBLIC "-//W3C//DTD SVG 20010904//EN"
 "http://www.w3.org/TR/2001/REC-SVG-20010904/DTD/svg10.dtd">
<svg version="1.0" xmlns="http://www.w3.org/2000/svg"
 width="531.000000pt" height="531.000000pt" viewBox="0 0 531.000000 531.000000"
 preserveAspectRatio="xMidYMid meet">

<g transform="translate(0.000000,531.000000) scale(0.100000,-0.100000)"
fill="#000000" stroke="none">
<path d="M2793 5269 c-10 -10 -39 -15 -134 -24 -20 -1 -46 -8 -58 -14 -11 -7
-21 -8 -21 -4 0 4 -5 2 -12 -5 -21 -21 -32 -13 -12 9 19 22 19 22 -3 10 -12
-6 -25 -16 -28 -21 -3 -6 -12 -10 -20 -10 -8 0 -26 -5 -42 -12 -15 -6 -32 -10
-37 -9 -4 1 -19 -5 -32 -14 -22 -14 -23 -14 -18 2 4 13 0 12 -15 -6 -12 -13
-21 -19 -21 -14 0 5 -18 8 -41 7 -32 -1 -48 -9 -79 -39 l-39 -38 5 29 5 29
-34 -38 c-35 -39 -66 -53 -79 -33 -5 8 -8 7 -8 -2 0 -13 -27 -42 -65 -72 -17
-14 -18 -13 -12 3 11 28 -1 19 -20 -15 -14 -27 -18 -30 -21 -14 -2 10 2 22 9
27 7 4 11 10 8 13 -9 9 -69 -24 -69 -38 0 -7 -10 -21 -22 -32 -12 -10 -19 -14
-16 -9 3 6 0 16 -8 23 -12 11 -14 8 -14 -15 -1 -41 -47 -143 -53 -118 -2 11
-3 5 -1 -12 3 -37 -2 -41 -23 -15 -13 15 -13 15 -3 -6 6 -13 10 -37 8 -55 -2
-26 -7 -32 -28 -33 -72 -3 -75 -4 -60 -14 8 -5 26 -7 40 -4 24 5 24 5 -4 -10
-15 -9 -33 -16 -39 -16 -6 0 -17 -7 -26 -15 -9 -8 -29 -26 -46 -40 l-30 -26
30 17 30 16 -33 -31 c-18 -17 -30 -36 -26 -42 7 -12 -41 -89 -56 -89 -6 0 -10
-4 -10 -10 0 -5 3 -9 8 -9 29 5 34 -3 13 -17 -21 -15 -22 -18 -7 -26 9 -5 13
-14 10 -20 -4 -6 0 -14 7 -19 10 -6 10 -9 2 -9 -9 0 -11 -11 -7 -37 8 -54 7
-155 -2 -177 -6 -15 -4 -17 7 -11 12 8 12 6 0 -9 -10 -11 -11 -20 -4 -24 6 -4
9 -49 9 -109 -1 -57 1 -103 4 -103 3 0 6 -26 6 -58 1 -50 5 -82 16 -157 2 -11
7 -23 13 -27 6 -5 6 -11 -1 -18 -7 -7 -9 -21 -6 -32 3 -15 7 -16 13 -7 13 22
19 5 10 -27 -5 -18 -4 -34 3 -42 29 -37 69 -72 80 -72 22 0 40 -45 27 -66 -10
-17 -11 -16 -7 7 4 22 1 26 -15 22 -24 -7 -33 -20 -19 -28 5 -3 10 -1 10 6 0
7 2 10 5 7 3 -3 3 -12 -1 -21 -5 -14 -8 -14 -27 3 -11 11 -26 20 -31 20 -6 -1
-2 -8 10 -18 11 -10 28 -29 37 -42 16 -25 15 -26 -17 -52 -18 -14 -33 -32 -34
-40 -1 -7 -5 -41 -10 -75 -10 -73 -2 -98 32 -107 14 -3 37 -18 51 -32 14 -14
38 -29 53 -33 22 -6 27 -14 28 -40 1 -18 5 -36 11 -40 5 -3 9 -30 10 -59 1
-43 -2 -52 -13 -48 -8 3 -13 2 -10 -3 11 -16 -69 -5 -99 14 l-30 19 19 -22
c27 -31 79 -46 118 -33 44 16 48 14 48 -16 1 -66 50 -272 81 -338 31 -67 32
-77 37 -215 3 -115 1 -155 -11 -191 -9 -25 -19 -84 -23 -131 -6 -79 -5 -90 20
-144 24 -52 86 -142 126 -184 8 -8 32 -37 54 -63 21 -26 43 -47 48 -47 5 0
-16 28 -47 62 -59 65 -131 166 -146 206 -5 13 -4 33 1 48 6 16 6 23 0 19 -16
-10 -22 41 -12 107 l9 63 2 -50 c1 -31 4 -45 10 -37 4 7 6 25 3 39 -3 18 -1
24 7 19 14 -9 14 6 0 38 -9 20 -9 29 1 41 8 9 8 15 2 15 -7 0 -10 37 -9 108
l2 108 27 -15 c15 -9 24 -17 19 -19 -5 -2 -7 -12 -4 -22 3 -11 9 -17 14 -14 5
3 9 0 9 -5 0 -6 -6 -11 -12 -11 -10 0 -10 -2 -1 -8 6 -4 11 -14 11 -22 -1 -8
0 -24 1 -35 1 -17 3 -18 11 -5 7 11 10 11 10 2 0 -15 59 -72 75 -72 6 0 16
-14 22 -30 8 -22 16 -28 28 -24 11 5 18 0 22 -14 2 -11 17 -23 31 -27 23 -6
24 -8 9 -14 -17 -6 -16 -8 8 -19 14 -7 31 -10 36 -7 5 4 9 -3 9 -14 0 -14 5
-19 20 -16 11 2 20 0 20 -6 0 -5 -6 -9 -12 -10 -7 0 -4 -4 7 -9 14 -6 16 -9 5
-10 -8 -2 -1 -5 15 -9 17 -4 29 -12 28 -19 -2 -7 7 -12 18 -12 12 0 38 -9 58
-19 83 -44 129 -61 165 -61 20 0 35 -4 32 -9 -4 -5 44 -8 115 -6 90 2 124 6
130 16 8 12 13 6 11 -12 -1 -3 10 -5 23 -3 14 1 25 -2 25 -7 0 -5 9 -9 19 -9
28 0 78 21 64 27 -7 2 -22 -1 -35 -8 -21 -11 -22 -11 -9 4 7 10 22 17 32 17
10 0 30 11 45 25 14 13 31 22 37 18 6 -3 7 -1 3 6 -4 6 -16 9 -27 6 -11 -4
-19 -2 -19 4 0 6 3 10 8 10 4 -1 10 0 15 1 9 3 24 7 35 9 4 1 0 6 -8 12 -12 8
-10 9 9 4 16 -5 21 -4 17 4 -5 7 -1 9 8 5 9 -3 16 -1 16 5 0 6 8 8 18 5 9 -2
7 1 -5 7 -26 14 -29 25 -9 32 10 4 13 1 9 -9 -3 -9 12 -3 40 15 46 31 83 43
59 19 -7 -7 -12 -16 -12 -21 0 -5 7 -1 16 7 8 9 22 16 30 16 11 0 10 -5 -6
-22 -11 -13 -16 -24 -10 -28 9 -6 8 -31 -6 -72 -4 -14 -2 -18 5 -14 16 10 13
-15 -3 -28 -8 -6 -17 -22 -21 -36 -6 -23 -5 -23 14 5 27 39 27 26 0 -22 -12
-22 -15 -32 -7 -25 8 6 19 8 23 4 5 -4 6 -2 2 3 -3 6 1 21 9 35 15 25 15 24 8
-10 -3 -19 -12 -40 -20 -46 -7 -6 -11 -13 -8 -17 6 -6 -13 -43 -39 -73 -10
-11 -30 -39 -45 -62 -95 -141 -278 -329 -415 -425 -33 -23 -68 -48 -78 -56
-18 -12 -27 -8 -102 48 -74 56 -68 47 18 -28 67 -58 59 -57 122 -9 32 25 84
63 115 86 90 66 182 157 265 261 42 53 92 114 111 135 19 22 51 73 70 115 31
67 36 90 43 196 5 66 17 190 27 277 18 153 19 157 54 200 40 49 86 130 111
198 21 58 68 256 70 297 0 7 10 15 21 18 42 12 68 30 82 57 16 31 18 41 5 34
-5 -4 -12 0 -15 6 -3 7 -3 3 0 -9 6 -24 -29 -67 -49 -60 -14 5 -10 66 4 84 7
7 5 13 -3 16 -11 4 -10 6 0 6 7 1 10 6 7 12 -11 17 5 79 19 79 8 0 16 7 20 15
3 9 0 15 -9 15 -8 0 -15 5 -15 10 0 15 17 12 36 -7 16 -16 16 -16 10 5 -10 29
1 47 19 32 19 -15 24 1 10 28 -8 14 -15 19 -18 13 -3 -7 -4 -6 -3 1 2 7 10 12
19 12 13 -1 14 2 7 16 -13 24 -13 70 0 70 6 0 10 5 10 11 0 5 -5 7 -11 4 -6
-4 -10 -1 -8 6 3 28 -1 39 -16 39 -8 0 -15 5 -15 11 0 5 -4 7 -10 4 -21 -13
-9 24 15 46 13 13 25 29 25 35 0 7 7 14 15 18 10 3 17 -3 21 -20 4 -17 9 -22
14 -14 6 9 9 9 15 0 13 -20 34 29 35 78 0 80 -52 129 -94 87 -22 -22 -26 -19
-26 20 0 20 5 35 12 35 6 0 9 3 5 6 -3 4 1 20 9 36 11 20 16 64 17 144 1 62 4
114 7 114 3 0 4 21 4 47 -1 27 2 66 7 88 4 22 9 63 10 90 1 28 7 60 12 72 7
16 6 27 -3 38 -10 12 -10 15 5 15 15 0 17 6 11 40 -6 36 -4 40 19 46 33 8 39
35 26 115 -13 89 -16 98 -29 111 -16 16 -15 33 1 22 7 -5 0 3 -16 17 -16 14
-31 36 -32 50 -6 46 -56 139 -98 181 -15 15 -27 36 -27 48 0 11 -7 20 -15 20
-8 0 -15 4 -15 9 0 5 -9 13 -20 16 -11 4 -18 10 -16 14 3 4 -7 12 -22 19 -15
6 -40 23 -57 37 -28 24 -28 25 -6 19 14 -4 21 -2 17 4 -3 5 -18 13 -33 17 -15
3 -31 11 -34 17 -4 6 -17 12 -30 13 -38 4 -39 4 -39 20 0 8 -7 15 -15 15 -8 0
-15 4 -15 9 0 11 -36 25 -77 31 -13 1 -11 4 7 10 25 8 25 8 -5 10 -26 1 -28 3
-10 10 16 7 12 9 -16 8 -36 -2 -69 18 -69 41 0 6 -12 11 -27 12 -24 0 -25 2
-9 8 25 10 11 17 -38 20 -22 1 -44 5 -50 9 -6 3 -23 7 -38 7 -15 0 -29 3 -33
6 -3 3 -34 5 -70 3 -43 -2 -63 1 -59 8 4 6 -1 8 -16 3 -12 -4 -29 -8 -36 -9
-7 -1 -17 -5 -20 -9 -14 -14 -26 -7 -21 13 6 23 5 24 -10 9z m-73 -39 c-24
-15 -36 -11 -14 4 10 8 21 12 24 10 2 -3 -2 -9 -10 -14z m70 15 c0 -2 -10 -10
-22 -16 -21 -11 -22 -11 -9 4 13 16 31 23 31 12z m-37 -162 c-7 -2 -19 -2 -25
0 -7 3 -2 5 12 5 14 0 19 -2 13 -5z m-829 -118 c-9 -14 -18 -25 -20 -25 -2 0
2 11 8 25 6 14 15 25 20 25 5 0 1 -11 -8 -25z m406 -510 c0 16 141 -2 172 -21
6 -4 8 -2 5 3 -9 15 105 13 116 -1 6 -8 10 -7 14 2 2 6 9 12 14 12 6 0 7 -5 4
-10 -4 -7 11 -10 42 -8 55 3 150 -10 176 -24 9 -5 17 -5 17 0 0 4 44 6 98 5
188 -6 232 -13 275 -44 17 -13 27 -15 27 -7 0 7 10 0 23 -16 12 -15 32 -40 45
-55 12 -14 32 -41 43 -58 11 -18 25 -33 30 -33 5 0 9 -7 9 -15 0 -8 5 -15 10
-15 11 0 35 -49 31 -65 -3 -13 20 -98 31 -112 5 -6 8 -17 7 -25 -1 -7 1 -21 6
-31 4 -9 5 -26 2 -37 -3 -13 0 -20 8 -20 14 0 14 -27 1 -67 -4 -14 -3 -23 3
-23 6 0 8 -7 5 -15 -4 -8 -10 -12 -15 -9 -5 3 -9 -1 -9 -10 0 -8 -6 -17 -12
-19 -9 -4 -9 -8 -3 -14 6 -4 11 -13 12 -20 3 -15 -50 -7 -105 18 -45 19 -122
33 -121 21 3 -19 -3 -23 -17 -11 -13 10 -17 10 -24 -1 -5 -8 -27 -13 -54 -14
-31 0 -46 -4 -46 -13 0 -7 -10 -12 -22 -12 -33 2 -100 -9 -107 -17 -3 -4 7 -4
22 -2 17 3 26 1 24 -5 -2 -6 -12 -11 -23 -12 -10 -2 -28 -6 -39 -11 -18 -7
-19 -6 -5 12 14 18 14 18 -5 3 -11 -9 -29 -19 -39 -23 -10 -3 -16 -9 -13 -12
6 -7 -35 -53 -43 -49 -3 2 -6 -13 -7 -32 -2 -33 0 -35 25 -28 61 14 65 14 32
-1 -48 -23 -193 -29 -250 -12 -40 12 -45 17 -48 47 -3 28 -5 31 -19 19 -14
-11 -15 -10 -10 12 4 14 4 19 1 13 -9 -20 -22 -15 -26 10 -2 12 -10 22 -18 22
-8 0 -28 12 -44 27 -16 15 -32 25 -37 23 -4 -3 -10 -1 -14 5 -3 5 -16 15 -28
21 -21 11 -21 10 2 -15 14 -14 22 -29 18 -32 -4 -4 -9 1 -13 10 -3 9 -17 16
-30 16 -14 0 -24 6 -24 14 0 21 -21 31 -30 16 -6 -9 -15 -10 -36 -3 -16 6 -38
7 -49 3 -11 -4 -29 -4 -40 1 l-20 8 20 1 c11 2 26 2 33 1 6 -1 12 3 12 9 0 12
-27 13 -93 4 -26 -4 -44 -10 -41 -15 2 -4 -15 -14 -38 -20 -24 -7 -51 -19 -60
-27 -9 -7 -38 -16 -64 -18 -42 -4 -46 -3 -34 11 7 8 10 18 6 22 -3 3 -7 4 -8
2 -2 -2 -18 -20 -36 -40 -31 -34 -32 -37 -17 -53 15 -14 15 -16 1 -16 -19 0
-20 -5 -6 -31 6 -11 8 -35 4 -53 -5 -32 -7 -33 -23 -17 -21 21 -23 111 -2 111
11 0 11 3 2 14 -9 11 -9 20 -2 35 7 12 9 54 6 106 -5 75 -3 86 10 81 10 -4 15
1 15 14 0 11 -5 20 -10 20 -7 0 -7 6 -2 18 5 9 7 23 4 31 -2 8 0 11 6 7 6 -3
20 6 31 20 13 16 21 21 22 13 1 -30 15 26 14 58 0 18 3 33 7 33 4 0 7 12 7 28
-1 17 -3 20 -6 9 -2 -9 -8 -15 -13 -12 -13 8 -1 75 21 118 19 35 18 41 -6 38
-5 -1 -2 5 7 12 10 8 15 17 11 20 -3 4 -1 7 7 7 10 0 10 3 0 15 -7 8 -10 21
-7 29 9 23 -5 27 -27 9 -21 -18 -21 -18 -2 5 11 12 25 22 33 22 9 0 13 8 11
24 -3 25 43 76 70 76 6 0 12 5 12 10 0 14 27 12 33 -2 3 -10 8 -10 18 1 9 9 9
11 2 7 -7 -4 -13 -2 -13 3 0 13 17 14 24 2 6 -10 57 -8 74 3 7 4 21 4 32 1 13
-4 20 -2 20 6 0 7 6 4 15 -7 8 -10 15 -14 15 -9z m-330 -255 c0 -5 -2 -10 -4
-10 -3 0 -8 5 -11 10 -3 6 -1 10 4 10 6 0 11 -4 11 -10z m1541 -537 c13 -16
12 -17 -3 -4 -17 13 -22 21 -14 21 2 0 10 -8 17 -17z m-1541 -43 c-6 -11 -15
-20 -19 -20 -5 0 -11 9 -14 20 -4 16 0 20 19 20 22 0 23 -3 14 -20z m588 -35
c-3 -3 -9 2 -12 12 -6 14 -5 15 5 6 7 -7 10 -15 7 -18z m-339 -9 c-2 -2 -73
-6 -157 -10 -107 -5 -152 -4 -147 3 4 7 62 11 157 11 83 0 149 -2 147 -4z
m356 -16 c3 -6 -1 -7 -9 -4 -18 7 -21 14 -7 14 6 0 13 -4 16 -10z m755 6 c0
-2 -7 -6 -15 -10 -8 -3 -15 -1 -15 4 0 6 7 10 15 10 8 0 15 -2 15 -4z m270
-16 c21 -7 19 -8 -17 -9 -24 -1 -43 4 -43 9 0 12 24 12 60 0z m-1662 -7 c-9
-2 -21 -16 -27 -31 -8 -22 -10 -23 -10 -6 -1 24 17 44 39 43 12 -1 12 -2 -2
-6z m239 1 c-3 -3 -12 -4 -19 -1 -8 3 -5 6 6 6 11 1 17 -2 13 -5z m40 0 c-3
-3 -12 -4 -19 -1 -8 3 -5 6 6 6 11 1 17 -2 13 -5z m991 -1 c-10 -2 -26 -2 -35
0 -10 3 -2 5 17 5 19 0 27 -2 18 -5z m-785 -10 c-7 -2 -19 -2 -25 0 -7 3 -2 5
12 5 14 0 19 -2 13 -5z m714 1 c-3 -3 -12 -4 -19 -1 -8 3 -5 6 6 6 11 1 17 -2
13 -5z m-1081 -29 c0 -14 -4 -25 -8 -25 -3 0 -8 -6 -11 -12 -2 -7 -2 1 1 17 7
48 21 63 18 20z m1541 7 c44 -24 55 -124 28 -254 -9 -40 -23 -84 -32 -98 -16
-25 -16 -25 4 -7 16 14 23 15 29 6 4 -8 3 -10 -4 -5 -14 8 -27 -36 -19 -65 3
-12 3 -18 0 -15 -10 10 -41 -64 -36 -84 4 -15 0 -20 -13 -21 -11 0 -14 -3 -6
-6 18 -7 15 -30 -5 -42 -14 -8 -15 -11 -3 -11 12 0 12 -2 -2 -10 -9 -6 -20
-25 -23 -43 -4 -17 -14 -45 -22 -60 -11 -22 -12 -36 -4 -58 5 -16 6 -31 1 -34
-5 -3 -11 3 -13 12 -4 14 -5 13 -6 -4 -1 -17 -5 -21 -18 -16 -16 6 -16 4 1
-15 18 -21 18 -21 -3 -17 -13 2 -19 0 -15 -6 3 -5 1 -15 -4 -22 -5 -7 -12 -25
-16 -41 -5 -19 -10 -25 -15 -18 -4 6 -6 -12 -6 -41 2 -55 -10 -74 -34 -54 -12
10 -14 8 -9 -11 4 -14 2 -20 -5 -15 -7 4 -8 0 -3 -12 6 -16 4 -16 -11 -4 -11
9 -14 10 -9 2 4 -8 2 -13 -7 -13 -8 0 -18 -12 -21 -26 -5 -17 -12 -24 -21 -20
-8 3 -15 1 -15 -4 0 -6 -8 -10 -17 -11 -11 0 -13 -3 -5 -6 6 -2 12 -9 12 -15
0 -6 -6 -5 -15 2 -9 7 -14 18 -12 24 2 6 0 24 -4 39 -6 20 -5 27 4 24 6 -2 14
-14 18 -28 5 -17 7 -19 8 -6 1 10 -4 27 -10 38 -11 22 5 54 22 43 11 -6 10 11
-1 46 -8 24 -8 24 -9 -6 -1 -35 -24 -63 -36 -43 -4 6 -2 15 6 19 10 7 10 11 0
24 -11 13 -11 19 -1 31 6 8 9 19 6 24 -4 5 -2 12 4 16 6 3 10 -4 10 -16 0 -15
3 -20 10 -13 11 11 2 54 -11 54 -5 0 -9 7 -9 16 0 8 -4 12 -10 9 -5 -3 -10 0
-11 7 0 7 -6 -2 -13 -21 -10 -29 -14 -32 -19 -17 -6 16 -10 16 -24 5 -10 -8
-14 -9 -10 -2 4 6 3 14 -3 18 -5 3 -10 -1 -10 -9 0 -19 -5 -20 -30 -6 -25 13
-63 -20 -53 -46 5 -14 3 -15 -15 -5 -17 9 -20 18 -17 44 3 17 3 26 -1 20 -3
-7 -14 -13 -25 -13 -14 0 -19 7 -19 25 0 14 5 25 10 25 6 0 10 5 10 11 0 5 -4
7 -10 4 -5 -3 -10 1 -10 10 0 8 7 18 15 21 9 4 15 19 15 36 0 16 4 37 9 46 10
19 -10 109 -34 151 -8 14 -17 34 -21 44 -9 24 -20 21 -28 -5 -10 -39 -7 -68 8
-74 12 -5 46 -71 46 -89 0 -15 -16 -2 -17 14 -2 23 -32 71 -44 71 -4 0 -7 -17
-5 -37 4 -51 -3 -63 -74 -111 -56 -39 -99 -55 -85 -32 4 6 -7 10 -25 10 -32 0
-70 17 -83 38 -4 6 -13 12 -18 12 -6 0 -7 -6 -3 -12 5 -9 3 -9 -9 1 -9 7 -14
17 -12 22 3 4 -24 7 -60 6 -38 -1 -67 -7 -69 -13 -5 -14 46 -74 62 -74 7 0 12
-4 12 -10 0 -5 6 -10 14 -10 7 0 21 -10 30 -22 14 -20 15 -21 10 -3 -5 18 -4
18 13 -3 14 -17 21 -20 30 -11 9 9 10 6 6 -11 -4 -16 -3 -21 5 -16 7 4 12 3
12 -3 0 -11 31 -7 56 7 11 6 26 5 43 -4 31 -16 55 -18 46 -4 -3 6 1 10 10 10
19 0 47 -25 38 -34 -4 -3 -1 -6 5 -6 5 0 13 6 15 13 8 19 26 -11 20 -34 -3
-10 0 -19 6 -19 6 0 11 -7 11 -15 0 -8 5 -15 11 -15 6 0 9 -5 7 -11 -6 -17
-258 -18 -276 -2 -7 6 -21 10 -31 8 -20 -4 -103 -7 -138 -6 -13 1 -24 10 -28
22 -6 17 -9 19 -16 8 -7 -11 -9 -10 -9 4 0 10 -4 15 -10 12 -13 -8 -13 1 2 28
10 20 10 21 -5 8 -11 -8 -17 -9 -17 -3 0 6 -6 9 -14 6 -9 -3 -17 3 -21 15 -6
18 -9 17 -42 -17 -34 -35 -37 -27 -5 11 24 28 3 20 -24 -10 -19 -20 -27 -24
-36 -15 -9 9 -9 12 0 12 7 0 9 7 5 17 -5 12 -2 15 9 11 18 -7 46 8 35 19 -5 4
-12 1 -17 -7 -6 -10 -10 -11 -10 -3 0 7 -7 10 -15 7 -8 -4 -15 -12 -15 -20 0
-8 -6 -11 -15 -8 -8 4 -15 1 -15 -6 0 -6 -5 -8 -11 -4 -8 4 -9 -1 -5 -17 3
-13 3 -18 0 -11 -11 23 -22 12 -21 -23 1 -19 5 -35 10 -35 5 0 3 -7 -4 -17
-13 -15 -11 -16 14 -9 19 4 26 3 22 -4 -3 -5 -2 -10 4 -10 6 0 7 -8 4 -17 -6
-16 -5 -16 10 -5 8 8 13 21 10 30 -4 15 -3 15 6 2 6 -8 11 -11 11 -6 0 5 7 3
15 -4 12 -10 15 -10 15 3 0 25 69 11 102 -20 22 -21 29 -23 33 -12 5 13 16 13
83 1 42 -7 90 -18 107 -23 21 -6 31 -6 34 2 2 8 6 8 11 -1 6 -9 12 -9 30 0 14
7 20 8 16 1 -5 -7 2 -7 21 -1 15 5 69 10 118 13 50 2 84 2 78 0 -12 -4 -19
-53 -8 -53 11 0 60 35 76 55 19 22 90 30 82 10 -2 -7 3 -15 11 -18 10 -4 16
-1 16 8 0 20 16 19 24 -1 3 -8 2 -13 -3 -10 -5 3 -14 -1 -21 -9 -7 -8 -8 -15
-3 -15 5 0 15 -11 21 -25 17 -38 14 -43 -8 -15 l-20 25 15 -37 c19 -46 19 -52
1 -45 -15 6 -31 -18 -27 -40 2 -16 -21 -17 -37 -1 -9 9 -11 6 -7 -10 4 -23
-31 -87 -53 -96 -8 -4 -10 -1 -6 7 4 6 -3 2 -14 -10 -13 -13 -19 -29 -16 -37
3 -9 1 -16 -5 -16 -6 0 -11 6 -11 13 0 8 -3 7 -9 -3 -6 -8 -7 -19 -3 -25 3 -5
-2 -4 -11 4 -15 12 -18 10 -26 -10 -4 -13 -6 -31 -4 -39 2 -8 -2 -4 -10 9 -12
20 -15 21 -20 7 -4 -9 -13 -16 -21 -16 -8 0 -21 -9 -29 -20 -9 -13 -21 -18
-39 -15 -23 4 -25 2 -21 -17 l5 -23 -16 23 c-10 12 -14 26 -11 32 3 6 -1 7 -9
4 -9 -3 -16 -12 -16 -20 0 -8 -4 -14 -10 -14 -5 0 -10 -5 -10 -11 0 -5 5 -7
10 -4 6 3 10 2 10 -4 0 -6 6 -9 13 -7 6 1 9 1 5 -1 -4 -2 -4 -12 -1 -21 4 -9
-9 -2 -27 17 -30 31 -32 35 -15 41 17 6 17 7 2 13 -16 6 -21 -2 -18 -30 1 -7
-5 -13 -14 -13 -11 0 -14 7 -10 28 5 25 4 24 -10 -6 -9 -18 -13 -38 -10 -45 4
-7 0 -4 -8 5 -8 10 -17 15 -20 11 -4 -3 -7 -1 -7 5 0 7 -7 12 -15 12 -8 0 -15
8 -15 18 0 11 -3 13 -8 5 -5 -8 -11 -4 -19 12 -8 19 -8 27 3 36 8 6 14 17 14
23 0 6 -10 -1 -23 -15 -14 -16 -29 -25 -42 -22 -11 2 -26 5 -32 5 -7 1 -13 6
-13 11 0 5 6 7 13 4 7 -3 19 3 25 14 11 17 10 18 -12 9 -29 -11 -52 6 -34 27
9 11 7 12 -8 7 -10 -4 -25 -11 -31 -17 -18 -13 -16 -1 3 28 16 24 16 25 -11
25 l-27 0 23 21 c19 16 20 19 6 15 -15 -5 -17 -2 -12 14 5 14 2 20 -9 20 -9 0
-16 4 -16 9 0 5 -9 12 -19 16 -12 4 -18 12 -14 21 3 7 0 14 -6 14 -6 0 -11 8
-11 18 -1 20 -24 54 -33 46 -3 -3 -10 3 -16 15 -8 15 -8 22 2 28 10 6 10 11
-4 25 -17 16 -19 15 -31 -13 -8 -19 -18 -27 -28 -24 -8 4 -11 3 -8 -1 8 -8
-21 -39 -44 -47 -13 -4 -15 -2 -11 10 4 11 2 14 -5 9 -8 -4 -10 -2 -6 8 6 17
32 29 45 21 5 -4 6 1 3 9 -4 11 0 16 14 16 19 0 38 27 27 38 -3 3 -5 0 -5 -7
0 -7 -13 -17 -30 -22 -16 -6 -30 -15 -30 -21 0 -5 -4 -7 -9 -4 -5 3 -11 -1
-15 -9 -8 -21 -24 -19 -31 6 -7 20 -7 20 -22 2 -15 -18 -14 -11 3 31 5 14 4
17 -5 11 -10 -6 -11 -2 -6 15 5 17 4 21 -6 15 -9 -6 -11 -3 -6 9 4 11 3 15 -4
11 -6 -4 -8 -13 -5 -21 3 -9 -1 -14 -14 -14 -26 0 -33 15 -15 33 19 20 19 28
0 21 -17 -7 -19 9 -5 36 7 13 7 21 0 25 -6 3 -14 -4 -19 -17 -8 -18 -10 -19
-10 -5 -1 10 3 27 9 37 7 13 6 19 -6 24 -9 3 -20 4 -24 1 -5 -3 -11 -1 -14 4
-4 5 3 12 14 16 11 3 20 12 20 20 0 7 6 16 13 18 9 4 9 6 -1 6 -7 1 -15 -6
-18 -14 -4 -8 -13 -15 -21 -15 -12 0 -12 2 1 16 18 17 21 28 6 19 -14 -9 -12
38 3 55 6 8 3 7 -9 -3 -28 -23 -41 -22 -19 3 20 23 14 26 -18 8 -20 -10 -21
-9 -9 5 14 17 13 68 -3 79 -5 4 -10 11 -11 15 0 4 -4 15 -7 23 -4 8 -6 22 -5
30 1 8 0 31 -1 50 -2 34 -2 34 -14 12 -12 -20 -13 -16 -13 36 -1 69 -11 114
-27 124 -9 6 -8 11 3 18 8 5 10 10 5 10 -29 0 -60 165 -34 181 11 7 10 9 -4 9
-17 0 -17 1 0 24 12 16 30 26 53 28 32 3 36 6 47 48 l11 45 2 -50 c1 -34 4
-44 9 -31 7 18 8 18 14 2 4 -11 12 -14 19 -9 7 4 18 8 23 9 6 1 23 5 38 8 23
4 35 -1 58 -25 16 -17 33 -27 38 -24 5 3 18 -6 29 -20 12 -15 23 -21 27 -15 3
5 19 10 36 10 16 0 29 5 29 10 0 6 4 10 10 10 5 0 8 -6 6 -12 -1 -7 -1 -10 1
-5 3 4 12 7 20 7 10 0 13 -6 9 -17 -6 -14 -4 -14 14 2 20 18 20 20 3 26 -12 5
-7 8 17 8 19 -1 29 -3 23 -6 -19 -7 -16 -31 5 -35 32 -7 71 4 75 21 3 11 5 10
6 -6 0 -12 -5 -24 -11 -27 -7 -3 -4 -5 6 -3 11 1 20 7 19 12 0 6 21 19 46 29
25 11 47 21 49 22 2 1 -2 12 -8 24 -10 19 -9 21 7 18 10 -2 19 -9 19 -16 1 -6
2 -17 3 -23 0 -5 6 -7 13 -3 7 5 8 3 2 -7 -4 -8 -9 -23 -11 -34 -2 -17 -1 -17
9 3 7 13 17 21 25 18 9 -4 16 5 20 24 3 17 10 30 15 30 14 0 26 43 17 62 -5 9
-25 22 -45 28 -19 7 -33 14 -30 17 9 10 76 -19 86 -37 16 -30 13 -90 -5 -90
-9 0 -20 -11 -26 -24 -6 -13 -20 -27 -30 -29 -11 -3 -19 -14 -19 -27 0 -14 -4
-19 -12 -14 -7 4 -10 4 -6 -1 12 -13 70 -17 62 -4 -3 6 -2 14 3 18 5 3 14 22
21 41 12 36 11 16 -3 -50 -14 -67 14 -17 31 55 10 39 22 75 27 80 7 7 7 3 3
-10 -5 -11 -11 -43 -15 -72 -8 -52 -14 -65 -60 -115 -14 -16 -20 -28 -13 -28
28 0 86 104 96 172 8 50 17 58 72 58 41 0 59 -25 67 -91 4 -25 18 -68 32 -95
19 -37 24 -42 19 -19 -4 17 -13 48 -21 69 -18 53 -8 59 13 7 16 -42 27 -50 40
-30 4 8 9 7 15 -2 6 -10 9 -5 9 16 0 22 3 26 9 16 5 -8 7 -20 4 -28 -7 -17 5
-17 23 2 18 17 18 14 6 46 -10 25 -9 26 35 28 25 0 49 4 54 7 5 3 9 0 9 -7 0
-8 5 -7 17 2 15 13 15 12 2 -8 -7 -12 -16 -18 -19 -14 -3 5 -14 5 -25 0 -23
-9 -21 -10 22 -14 18 -1 31 1 30 4 -1 3 3 6 8 6 6 0 9 -4 7 -9 -2 -5 4 -4 12
3 9 7 23 11 31 7 8 -3 15 -4 15 -2 0 3 3 11 6 20 5 12 0 16 -18 16 -13 0 -29
-5 -36 -12 -9 -9 -12 -9 -12 0 0 6 -18 21 -40 32 -22 11 -40 25 -40 30 0 5 11
21 23 36 l24 27 0 -31 c0 -43 27 -71 66 -69 39 2 58 -12 46 -34 -5 -11 -4 -16
7 -16 7 0 14 7 14 14 0 10 5 9 20 -5 14 -13 32 -17 59 -15 54 4 116 27 113 41
-4 21 25 24 62 7 21 -10 36 -25 38 -38 2 -16 10 -22 28 -22 25 0 25 -1 24 -78
0 -85 7 -83 26 8 18 83 20 106 9 99 -5 -3 -7 -9 -4 -14 3 -4 1 -19 -4 -32 -10
-25 -10 -32 -14 102 -2 40 1 45 21 48 14 2 22 10 22 23 0 22 -4 23 -32 8 -19
-10 -20 -9 -15 10 3 11 1 24 -5 27 -5 3 -69 10 -141 14 l-132 8 140 -2 c80 -2
150 -8 162 -14z m-1060 2 c-3 -3 -12 -4 -19 -1 -8 3 -5 6 6 6 11 1 17 -2 13
-5z m1175 -28 c2 -19 0 -32 -4 -30 -8 5 -12 64 -4 64 2 0 6 -15 8 -34z m110
-6 c5 -13 6 -21 2 -17 -4 4 -13 -1 -20 -11 -12 -15 -15 -15 -25 -2 -9 13 -10
12 -5 -2 3 -10 1 -20 -5 -23 -5 -4 -6 -12 -2 -18 3 -7 -3 -4 -13 5 -18 16 -23
16 -40 3 -25 -19 -40 -19 -20 0 8 8 17 15 21 15 9 0 40 31 41 42 1 4 2 13 3
19 0 5 6 7 11 4 6 -3 10 -1 10 5 0 21 33 5 42 -20z m-899 -14 c-10 -13 -20
-20 -21 -15 -5 12 17 39 30 39 5 0 1 -11 -9 -24z m346 -7 c22 -36 20 -49 -10
-67 -27 -17 -34 -10 -17 17 11 18 10 26 -4 51 -14 25 -15 30 -2 30 8 0 23 -14
33 -31z m281 21 c0 -5 -2 -10 -4 -10 -3 0 -8 5 -11 10 -3 6 -1 10 4 10 6 0 11
-4 11 -10z m-1318 -48 c-3 -27 1 -44 13 -55 21 -22 11 -22 -26 0 -39 23 -44
43 -17 69 31 31 34 30 30 -14z m204 -25 c-1 -7 -1 -8 2 -4 4 8 32 -11 32 -22
0 -3 -21 -7 -47 -8 -25 -1 -51 -7 -57 -13 -21 -21 -26 -9 -6 13 16 16 21 32
18 58 l-3 36 32 -24 c17 -13 31 -30 29 -36z m724 42 c0 -5 -4 -9 -10 -9 -5 0
-10 7 -10 16 0 8 5 12 10 9 6 -3 10 -10 10 -16z m30 7 c0 -3 -4 -8 -10 -11 -5
-3 -10 -1 -10 4 0 6 5 11 10 11 6 0 10 -2 10 -4z m-860 -16 c0 -5 -4 -10 -10
-10 -5 0 -10 5 -10 10 0 6 5 10 10 10 6 0 10 -4 10 -10z m583 -85 c4 -54 4
-61 -3 -30 -9 40 -13 112 -6 104 2 -2 6 -35 9 -74z m-1052 42 c-10 -9 -11 -8
-5 6 3 10 9 15 12 12 3 -3 0 -11 -7 -18z m1018 -42 c1 -16 -1 -17 -9 -5 -5 8
-9 29 -9 45 1 29 1 29 9 5 4 -14 8 -34 9 -45z m151 25 c0 -5 -2 -10 -4 -10 -3
0 -8 5 -11 10 -3 6 -1 10 4 10 6 0 11 -4 11 -10z m527 -32 c-3 -8 -6 -5 -6 6
-1 11 2 17 5 13 3 -3 4 -12 1 -19z m136 7 c-3 -9 -8 -14 -10 -11 -3 3 -2 9 2
15 9 16 15 13 8 -4z m-1993 -177 c4 -29 12 -64 16 -77 5 -17 4 -22 -5 -17 -6
4 -9 11 -6 15 2 5 -2 17 -10 27 -13 17 -13 16 -5 -15 5 -19 15 -38 21 -42 25
-15 -10 -18 -41 -3 -30 16 -32 19 -28 58 6 45 35 122 44 113 3 -3 9 -29 14
-59z m1997 -40 c-3 -7 -5 -2 -5 12 0 14 2 19 5 13 2 -7 2 -19 0 -25z m33 22
c0 -5 -2 -10 -4 -10 -3 0 -8 5 -11 10 -3 6 -1 10 4 10 6 0 11 -4 11 -10z m-73
-52 c-3 -8 -6 -5 -6 6 -1 11 2 17 5 13 3 -3 4 -12 1 -19z m30 -10 c-3 -8 -6
-5 -6 6 -1 11 2 17 5 13 3 -3 4 -12 1 -19z m-692 -258 l5 -35 -14 35 c-18 42
-20 58 -6 44 5 -5 12 -25 15 -44z m542 3 c-3 -10 -5 -4 -5 12 0 17 2 24 5 18
2 -7 2 -21 0 -30z m-952 -53 c3 -5 1 -10 -4 -10 -6 0 -11 5 -11 10 0 6 2 10 4
10 3 0 8 -4 11 -10z m925 -20 c0 -5 -2 -10 -4 -10 -3 0 -8 5 -11 10 -3 6 -1
10 4 10 6 0 11 -4 11 -10z m-1583 -102 c-3 -8 -6 -5 -6 6 -1 11 2 17 5 13 3
-3 4 -12 1 -19z m1008 -8 c3 -6 -1 -7 -9 -4 -18 7 -21 14 -7 14 6 0 13 -4 16
-10z m15 -34 c0 -2 -7 -6 -15 -10 -8 -3 -15 -1 -15 4 0 6 7 10 15 10 8 0 15
-2 15 -4z m-10 -55 c6 -11 6 -22 1 -25 -5 -3 -11 5 -13 19 -6 30 -2 32 12 6z
m487 -3 c-3 -8 -6 -5 -6 6 -1 11 2 17 5 13 3 -3 4 -12 1 -19z m-297 -8 c10 -6
12 -12 5 -19 -7 -7 -14 -4 -23 9 -13 21 -6 25 18 10z m53 -20 c3 -11 1 -20 -4
-20 -5 0 -9 2 -9 4 0 2 -3 11 -6 20 -3 9 -2 16 4 16 5 0 12 -9 15 -20z m-22
-27 c13 -16 12 -17 -3 -4 -11 8 -18 9 -18 3 0 -7 -7 -9 -17 -5 -15 6 -15 7 3
14 10 4 20 8 20 8 1 1 8 -7 15 -16z m-511 -24 c0 -5 7 -5 17 -2 10 4 14 2 10
-4 -4 -6 -22 -11 -41 -11 -19 0 -38 -2 -43 -5 -11 -7 -53 10 -53 22 0 10 50 9
67 -2 9 -6 11 -3 7 7 -4 11 0 13 15 9 12 -3 21 -9 21 -14z m550 3 c0 -4 -9
-13 -20 -20 -18 -11 -19 -10 -8 13 10 21 28 26 28 7z m-1173 -74 c-3 -8 -6 -5
-6 6 -1 11 2 17 5 13 3 -3 4 -12 1 -19z m213 -12 c0 -3 -4 -8 -10 -11 -5 -3
-10 -1 -10 4 0 6 5 11 10 11 6 0 10 -2 10 -4z m-80 -100 c0 -2 -8 -10 -17 -17
-16 -13 -17 -12 -4 4 13 16 21 21 21 13z m-200 -46 c0 -11 -2 -20 -4 -20 -2 0
-6 9 -9 20 -3 11 -1 20 4 20 5 0 9 -9 9 -20z m30 -30 c0 -5 -4 -10 -10 -10 -5
0 -10 5 -10 10 0 6 5 10 10 10 6 0 10 -4 10 -10z m400 -90 c0 -5 -8 -10 -17
-10 -15 0 -16 2 -3 10 19 12 20 12 20 0z m20 -44 c0 -2 -8 -10 -17 -17 -16
-13 -17 -12 -4 4 13 16 21 21 21 13z m507 -28 c-3 -8 -6 -5 -6 6 -1 11 2 17 5
13 3 -3 4 -12 1 -19z m-81 -56 c-17 -16 -18 -16 -5 5 7 12 15 20 18 17 3 -2
-3 -12 -13 -22z m-55 -25 c-10 -9 -11 -8 -5 6 3 10 9 15 12 12 3 -3 0 -11 -7
-18z m499 -76 c0 -6 -9 -9 -19 -8 -11 0 -17 5 -15 9 7 11 34 10 34 -1z m-60
-25 c0 -2 -7 -9 -15 -16 -13 -11 -14 -10 -9 4 5 14 24 23 24 12z m-190 -171
c-7 -8 -16 -15 -21 -15 -5 0 -1 9 8 20 9 11 19 17 21 15 3 -3 -1 -11 -8 -20z"/>
<path d="M3631 3409 c-10 -19 -10 -32 -3 -45 10 -17 11 -16 17 8 4 14 5 35 3
45 -4 15 -7 14 -17 -8z"/>
<path d="M2930 3182 c0 -12 3 -12 15 -2 8 7 15 13 15 15 0 1 -7 2 -15 2 -8 0
-15 -7 -15 -15z"/>
<path d="M2610 3176 c-6 -9 -10 -21 -7 -28 4 -9 6 -7 6 4 1 9 7 18 14 21 6 2
9 7 6 11 -3 4 -12 0 -19 -8z"/>
<path d="M2520 2905 c-7 -9 -8 -15 -2 -15 5 0 12 7 16 15 3 8 4 15 2 15 -2 0
-9 -7 -16 -15z"/>
<path d="M2637 2643 c-4 -3 -7 -11 -7 -17 0 -6 5 -5 12 2 6 6 9 14 7 17 -3 3
-9 2 -12 -2z"/>
<path d="M3120 2640 c0 -5 5 -10 10 -10 6 0 10 5 10 10 0 6 -4 10 -10 10 -5 0
-10 -4 -10 -10z"/>
<path d="M2570 2610 c-8 -5 -12 -12 -9 -15 4 -3 12 1 19 10 14 17 11 19 -10 5z"/>
<path d="M3397 2517 c-3 -8 -1 -20 4 -28 5 -9 9 -9 9 -2 0 6 3 18 6 27 3 9 2
16 -4 16 -5 0 -12 -6 -15 -13z"/>
<path d="M2293 2447 c-9 -20 -8 -23 11 -24 11 -1 15 1 9 4 -9 3 -10 10 -3 24
6 10 7 19 2 19 -5 0 -13 -10 -19 -23z"/>
<path d="M2504 2429 c-3 -6 -1 -16 5 -22 8 -8 11 -5 11 11 0 24 -5 28 -16 11z"/>
<path d="M2937 2413 c-4 -3 -7 -13 -7 -22 1 -13 3 -13 11 2 11 19 8 33 -4 20z"/>
<path d="M2718 2300 c-31 -4 -53 -13 -62 -25 -18 -25 -10 -38 20 -32 13 2 21
0 17 -6 -3 -5 3 -6 16 -2 11 3 26 3 33 -2 21 -12 42 -9 50 7 5 10 7 7 8 -10 1
-23 2 -23 9 -5 6 14 19 21 42 23 19 1 36 7 38 13 2 6 15 15 29 20 19 7 22 13
14 21 -8 8 -15 8 -24 0 -12 -9 -90 -8 -133 2 -5 1 -31 -1 -57 -4z"/>
<path d="M2597 2289 c-9 -6 -15 -14 -13 -18 7 -11 66 -1 66 11 0 5 -4 6 -10 3
-5 -3 -10 -1 -10 4 0 14 -10 13 -33 0z"/>
<path d="M2897 2109 c7 -7 15 -10 18 -7 3 3 -2 9 -12 12 -14 6 -15 5 -6 -5z"/>
<path d="M2870 2069 c0 -5 5 -7 10 -4 6 3 10 8 10 11 0 2 -4 4 -10 4 -5 0 -10
-5 -10 -11z"/>
<path d="M2110 5095 c-7 -9 -10 -18 -7 -21 3 -3 10 4 17 15 13 25 8 27 -10 6z"/>
<path d="M1861 4990 c0 -8 4 -22 9 -30 12 -18 12 -2 0 25 -6 13 -9 15 -9 5z"/>
<path d="M1535 4500 c-10 -11 -13 -20 -7 -20 6 0 16 9 22 20 6 11 9 20 7 20
-2 0 -12 -9 -22 -20z"/>
<path d="M1490 3479 c-7 -11 -10 -23 -7 -25 2 -2 9 7 15 21 14 30 7 33 -8 4z"/>
<path d="M1510 3440 c-10 -18 -7 -24 13 -21 4 0 7 -4 7 -11 0 -6 6 -4 13 6 12
16 17 17 38 6 21 -10 21 -9 -5 14 -35 31 -52 33 -66 6z"/>
<path d="M1472 3420 c0 -14 2 -19 5 -12 2 6 2 18 0 25 -3 6 -5 1 -5 -13z"/>
<path d="M1528 3364 c-5 -4 -8 -19 -8 -33 1 -23 2 -24 11 -8 11 19 9 53 -3 41z"/>
<path d="M3862 3315 c0 -16 2 -22 5 -12 2 9 2 23 0 30 -3 6 -5 -1 -5 -18z"/>
<path d="M1481 3314 c0 -11 3 -14 6 -6 3 7 2 16 -1 19 -3 4 -6 -2 -5 -13z"/>
<path d="M3829 3210 c-3 -52 -4 -96 -3 -98 8 -13 21 112 15 148 -7 40 -8 34
-12 -50z"/>
<path d="M3852 3260 c0 -14 2 -19 5 -12 2 6 2 18 0 25 -3 6 -5 1 -5 -13z"/>
<path d="M1523 3215 c0 -27 2 -38 4 -22 2 15 2 37 0 50 -2 12 -4 0 -4 -28z"/>
<path d="M1492 3220 c0 -14 2 -19 5 -12 2 6 2 18 0 25 -3 6 -5 1 -5 -13z"/>
<path d="M1501 3174 c0 -11 3 -14 6 -6 3 7 2 16 -1 19 -3 4 -6 -2 -5 -13z"/>
<path d="M1512 3140 c0 -8 4 -26 8 -40 6 -20 8 -21 8 -5 0 11 -3 29 -8 40 -5
12 -8 14 -8 5z"/>
<path d="M3806 3063 c-4 -18 -11 -33 -14 -33 -4 0 -12 -11 -19 -25 -7 -17 -8
-23 0 -18 6 4 8 0 4 -10 -19 -47 -20 -52 -5 -32 20 26 51 122 45 138 -2 6 -7
-3 -11 -20z"/>
<path d="M1561 3034 c0 -11 3 -14 6 -6 3 7 2 16 -1 19 -3 4 -6 -2 -5 -13z"/>
<path d="M1560 2995 c0 -11 50 -95 56 -95 3 0 -6 21 -22 48 -31 54 -34 58 -34
47z"/>
<path d="M3752 2900 c0 -14 2 -19 5 -12 2 6 2 18 0 25 -3 6 -5 1 -5 -13z"/>
<path d="M1996 2177 c3 -10 9 -15 12 -12 3 3 0 11 -7 18 -10 9 -11 8 -5 -6z"/>
<path d="M2017 2099 c4 -13 8 -18 11 -10 2 7 -1 18 -6 23 -8 8 -9 4 -5 -13z"/>
<path d="M1990 1970 c0 -5 5 -10 11 -10 5 0 7 5 4 10 -3 6 -8 10 -11 10 -2 0
-4 -4 -4 -10z"/>
<path d="M1804 1888 c-28 -29 -70 -80 -94 -113 -64 -86 -208 -225 -257 -246
-23 -10 -95 -34 -160 -54 -284 -88 -369 -117 -423 -144 -32 -16 -78 -35 -102
-41 -23 -6 -94 -38 -156 -71 -95 -51 -127 -62 -203 -75 -82 -13 -261 -61 -364
-98 l-40 -14 -3 -516 -2 -516 985 0 c604 0 985 4 985 9 0 5 -9 67 -20 138 -40
264 -70 491 -70 534 0 24 -11 122 -25 218 -14 96 -24 179 -22 185 6 17 28 -81
34 -149 3 -33 8 -85 13 -115 l8 -55 1 71 c0 39 -4 97 -10 129 -8 43 -8 60 1
65 8 5 4 26 -15 71 -14 35 -30 93 -35 129 -5 36 -16 99 -24 141 -37 191 -32
309 23 476 16 49 28 89 27 91 -2 1 -25 -21 -52 -50z"/>
<path d="M1960 1830 c0 -5 5 -10 11 -10 5 0 7 5 4 10 -3 6 -8 10 -11 10 -2 0
-4 -4 -4 -10z"/>
<path d="M3235 1829 c-4 -6 -4 -13 -1 -16 3 -4 6 -1 6 6 0 8 8 11 20 8 11 -3
18 -1 14 4 -7 12 -31 11 -39 -2z"/>
<path d="M3434 1698 c10 -50 17 -116 31 -306 9 -123 20 -214 29 -238 9 -22 20
-70 25 -109 l8 -70 2 110 2 110 15 -45 c47 -151 115 -549 154 -905 12 -110 23
-210 26 -223 l4 -22 790 0 790 0 0 453 c0 502 -2 518 -63 599 -39 51 -94 90
-122 86 -11 -1 -34 3 -50 9 -133 52 -599 183 -651 183 -10 0 -95 27 -188 59
-233 81 -479 156 -689 212 -29 8 -45 21 -74 64 -20 30 -38 55 -40 55 -2 0 -1
-10 1 -22z"/>
<path d="M3255 1540 c-3 -5 -1 -10 4 -10 6 0 11 5 11 10 0 6 -2 10 -4 10 -3 0
-8 -4 -11 -10z"/>
<path d="M2200 1395 c19 -19 36 -35 39 -35 3 0 -10 16 -29 35 -19 19 -36 35
-39 35 -3 0 10 -16 29 -35z"/>
<path d="M2442 1164 c10 -10 20 -16 22 -13 3 3 -5 11 -17 18 -21 13 -21 12 -5
-5z"/>
<path d="M2510 1116 c0 -2 8 -10 18 -17 15 -13 16 -12 3 4 -13 16 -21 21 -21
13z"/>
<path d="M2958 1075 c-16 -9 -28 -18 -28 -21 0 -2 9 0 19 6 28 14 44 12 37 -5
-3 -8 -2 -15 3 -15 4 0 8 -6 8 -12 0 -7 4 -21 8 -30 5 -13 -2 -22 -26 -37 -51
-31 -188 -73 -225 -69 -18 2 -30 0 -28 -4 3 -4 -4 -8 -15 -8 -18 0 -134 -98
-188 -158 -21 -23 -22 -26 -5 -38 9 -7 24 -14 33 -14 28 0 96 -87 148 -189 21
-41 22 -45 7 -84 l-16 -42 20 24 c26 30 25 14 -1 -69 -14 -44 -23 -105 -26
-187 l-6 -123 227 0 c124 0 226 2 226 4 0 14 -64 174 -90 225 -65 130 -70 150
-55 227 15 78 67 263 97 341 l19 53 22 -20 c26 -25 43 -25 56 -2 10 16 12 15
31 -8 22 -26 -36 89 -75 150 -32 50 -96 108 -125 114 -14 3 -37 -1 -52 -9z"/>
<path d="M2834 984 c-18 -14 -18 -15 4 -4 12 6 22 13 22 15 0 8 -5 6 -26 -11z"/>
</g>
</svg>
